# xmcd
#
# Track frame offsets:
#	150
#	18142
#	33980
#	53004
#	70001
#	82875
#	101668
#	115857
#	134834
#	148633
#	165578
#
# Disc length: 2431 seconds
#
# Revision: 3
# Processed by: cddbd v1.5.2PL0 Copyright (c) Steve Scherf et al.
# Submitted via: EasyCDDAExtractor 15.3.0.1
#
DISCID=8a097d0b
DTITLE=Luis Fonsi - Paso A Paso
DYEAR=2005
DGENRE=Latin
TTITLE0=Nada Es Para Siempre
TTITLE1=Arropame
TTITLE2=Escondido
TTITLE3=Estoy Perdido
TTITLE4=Por Una Mujer
TTITLE5=Vivo Muriendo
TTITLE6=Me Matas
TTITLE7=Me Lo Dice El Alma
TTITLE8=Para Mi
TTITLE9=Todo Sigue Igual
TTITLE10=Paso A Paso
EXTD=YEAR: 2005
EXTT0=
EXTT1=
EXTT2=
EXTT3=
EXTT4=
EXTT5=
EXTT6=
EXTT7=
EXTT8=
EXTT9=
EXTT10=
PLAYORDER=
